<mxfile host="app.diagrams.net" modified="2024-03-04T03:00:37.325Z" agent="Mozilla/5.0 (Windows NT 10.0; Win64; x64) AppleWebKit/537.36 (KHTML, like Gecko) Chrome/121.0.0.0 Safari/537.36" etag="d7IPGOjiLz2JUdvlkmMO" version="23.1.8" type="github">
  <diagram name="第 1 页" id="TVfGBOnglD5f5qXa52wq">
    <mxGraphModel dx="724" dy="396" grid="1" gridSize="10" guides="1" tooltips="1" connect="1" arrows="1" fold="1" page="1" pageScale="1" pageWidth="827" pageHeight="1169" math="0" shadow="0">
      <root>
        <mxCell id="0" />
        <mxCell id="1" parent="0" />
        <mxCell id="dXU8rXVmxxqrfWCyh8ZT-1" value="训练样本管理页面" style="shape=umlLifeline;perimeter=lifelinePerimeter;whiteSpace=wrap;html=1;container=1;dropTarget=0;collapsible=0;recursiveResize=0;outlineConnect=0;portConstraint=eastwest;newEdgeStyle={&quot;curved&quot;:0,&quot;rounded&quot;:0};" vertex="1" parent="1">
          <mxGeometry x="180" y="190" width="100" height="270" as="geometry" />
        </mxCell>
        <mxCell id="dXU8rXVmxxqrfWCyh8ZT-34" value="" style="html=1;points=[[0,0,0,0,5],[0,1,0,0,-5],[1,0,0,0,5],[1,1,0,0,-5]];perimeter=orthogonalPerimeter;outlineConnect=0;targetShapes=umlLifeline;portConstraint=eastwest;newEdgeStyle={&quot;curved&quot;:0,&quot;rounded&quot;:0};" vertex="1" parent="dXU8rXVmxxqrfWCyh8ZT-1">
          <mxGeometry x="45" y="67" width="10" height="30" as="geometry" />
        </mxCell>
        <mxCell id="dXU8rXVmxxqrfWCyh8ZT-54" value="" style="html=1;points=[[0,0,0,0,5],[0,1,0,0,-5],[1,0,0,0,5],[1,1,0,0,-5]];perimeter=orthogonalPerimeter;outlineConnect=0;targetShapes=umlLifeline;portConstraint=eastwest;newEdgeStyle={&quot;curved&quot;:0,&quot;rounded&quot;:0};" vertex="1" parent="dXU8rXVmxxqrfWCyh8ZT-1">
          <mxGeometry x="45" y="210" width="10" height="40" as="geometry" />
        </mxCell>
        <mxCell id="dXU8rXVmxxqrfWCyh8ZT-3" value="" style="shape=umlLifeline;perimeter=lifelinePerimeter;whiteSpace=wrap;html=1;container=1;dropTarget=0;collapsible=0;recursiveResize=0;outlineConnect=0;portConstraint=eastwest;newEdgeStyle={&quot;curved&quot;:0,&quot;rounded&quot;:0};participant=umlActor;" vertex="1" parent="1">
          <mxGeometry x="80" y="190" width="20" height="270" as="geometry" />
        </mxCell>
        <mxCell id="dXU8rXVmxxqrfWCyh8ZT-33" value="" style="html=1;points=[[0,0,0,0,5],[0,1,0,0,-5],[1,0,0,0,5],[1,1,0,0,-5]];perimeter=orthogonalPerimeter;outlineConnect=0;targetShapes=umlLifeline;portConstraint=eastwest;newEdgeStyle={&quot;curved&quot;:0,&quot;rounded&quot;:0};" vertex="1" parent="dXU8rXVmxxqrfWCyh8ZT-3">
          <mxGeometry x="5" y="67" width="10" height="183" as="geometry" />
        </mxCell>
        <mxCell id="dXU8rXVmxxqrfWCyh8ZT-5" value="检测模型管理模块" style="shape=umlLifeline;perimeter=lifelinePerimeter;whiteSpace=wrap;html=1;container=1;dropTarget=0;collapsible=0;recursiveResize=0;outlineConnect=0;portConstraint=eastwest;newEdgeStyle={&quot;curved&quot;:0,&quot;rounded&quot;:0};" vertex="1" parent="1">
          <mxGeometry x="314" y="190" width="100" height="270" as="geometry" />
        </mxCell>
        <mxCell id="dXU8rXVmxxqrfWCyh8ZT-37" value="" style="html=1;points=[[0,0,0,0,5],[0,1,0,0,-5],[1,0,0,0,5],[1,1,0,0,-5]];perimeter=orthogonalPerimeter;outlineConnect=0;targetShapes=umlLifeline;portConstraint=eastwest;newEdgeStyle={&quot;curved&quot;:0,&quot;rounded&quot;:0};" vertex="1" parent="dXU8rXVmxxqrfWCyh8ZT-5">
          <mxGeometry x="45" y="87" width="10" height="133" as="geometry" />
        </mxCell>
        <mxCell id="dXU8rXVmxxqrfWCyh8ZT-7" value="数据库" style="shape=umlLifeline;perimeter=lifelinePerimeter;whiteSpace=wrap;html=1;container=1;dropTarget=0;collapsible=0;recursiveResize=0;outlineConnect=0;portConstraint=eastwest;newEdgeStyle={&quot;curved&quot;:0,&quot;rounded&quot;:0};" vertex="1" parent="1">
          <mxGeometry x="444" y="190" width="100" height="270" as="geometry" />
        </mxCell>
        <mxCell id="dXU8rXVmxxqrfWCyh8ZT-40" value="" style="html=1;points=[[0,0,0,0,5],[0,1,0,0,-5],[1,0,0,0,5],[1,1,0,0,-5]];perimeter=orthogonalPerimeter;outlineConnect=0;targetShapes=umlLifeline;portConstraint=eastwest;newEdgeStyle={&quot;curved&quot;:0,&quot;rounded&quot;:0};" vertex="1" parent="dXU8rXVmxxqrfWCyh8ZT-7">
          <mxGeometry x="45" y="158" width="10" height="45" as="geometry" />
        </mxCell>
        <mxCell id="dXU8rXVmxxqrfWCyh8ZT-10" value="运维人员" style="text;html=1;align=center;verticalAlign=middle;whiteSpace=wrap;rounded=0;" vertex="1" parent="1">
          <mxGeometry x="90" y="200" width="60" height="30" as="geometry" />
        </mxCell>
        <mxCell id="dXU8rXVmxxqrfWCyh8ZT-35" style="edgeStyle=orthogonalEdgeStyle;rounded=0;orthogonalLoop=1;jettySize=auto;html=1;curved=0;exitX=1;exitY=0;exitDx=0;exitDy=5;exitPerimeter=0;entryX=0;entryY=0;entryDx=0;entryDy=5;entryPerimeter=0;" edge="1" parent="1" source="dXU8rXVmxxqrfWCyh8ZT-33" target="dXU8rXVmxxqrfWCyh8ZT-34">
          <mxGeometry relative="1" as="geometry" />
        </mxCell>
        <mxCell id="dXU8rXVmxxqrfWCyh8ZT-36" value="1. 上传APK样本" style="text;html=1;align=center;verticalAlign=middle;whiteSpace=wrap;rounded=0;" vertex="1" parent="1">
          <mxGeometry x="95" y="237" width="115" height="30" as="geometry" />
        </mxCell>
        <mxCell id="dXU8rXVmxxqrfWCyh8ZT-38" style="edgeStyle=orthogonalEdgeStyle;rounded=0;orthogonalLoop=1;jettySize=auto;html=1;curved=0;exitX=1;exitY=1;exitDx=0;exitDy=-5;exitPerimeter=0;entryX=0;entryY=0;entryDx=0;entryDy=5;entryPerimeter=0;" edge="1" parent="1" source="dXU8rXVmxxqrfWCyh8ZT-34" target="dXU8rXVmxxqrfWCyh8ZT-37">
          <mxGeometry relative="1" as="geometry" />
        </mxCell>
        <mxCell id="dXU8rXVmxxqrfWCyh8ZT-39" value="2. 提交APK样本" style="text;html=1;align=center;verticalAlign=middle;whiteSpace=wrap;rounded=0;" vertex="1" parent="1">
          <mxGeometry x="242" y="257" width="100" height="30" as="geometry" />
        </mxCell>
        <mxCell id="dXU8rXVmxxqrfWCyh8ZT-41" value="" style="endArrow=classic;html=1;rounded=0;" edge="1" parent="1">
          <mxGeometry width="50" height="50" relative="1" as="geometry">
            <mxPoint x="368.7500000000001" y="355" as="sourcePoint" />
            <mxPoint x="489.25" y="355" as="targetPoint" />
          </mxGeometry>
        </mxCell>
        <mxCell id="dXU8rXVmxxqrfWCyh8ZT-42" value="4. 写入数据库" style="text;html=1;align=center;verticalAlign=middle;whiteSpace=wrap;rounded=0;" vertex="1" parent="1">
          <mxGeometry x="383.75" y="330" width="80" height="30" as="geometry" />
        </mxCell>
        <mxCell id="dXU8rXVmxxqrfWCyh8ZT-48" value="" style="endArrow=classic;html=1;rounded=0;edgeStyle=orthogonalEdgeStyle;" edge="1" parent="1">
          <mxGeometry width="50" height="50" relative="1" as="geometry">
            <mxPoint x="369" y="290.01" as="sourcePoint" />
            <mxPoint x="369" y="319.01" as="targetPoint" />
            <Array as="points">
              <mxPoint x="389" y="290.01" />
              <mxPoint x="389" y="319.01" />
            </Array>
          </mxGeometry>
        </mxCell>
        <mxCell id="dXU8rXVmxxqrfWCyh8ZT-50" value="3. AKP静态分析" style="text;html=1;align=center;verticalAlign=middle;whiteSpace=wrap;rounded=0;" vertex="1" parent="1">
          <mxGeometry x="384" y="289" width="100" height="30" as="geometry" />
        </mxCell>
        <mxCell id="dXU8rXVmxxqrfWCyh8ZT-52" value="" style="endArrow=classic;html=1;rounded=0;dashed=1;" edge="1" parent="1" target="dXU8rXVmxxqrfWCyh8ZT-37">
          <mxGeometry width="50" height="50" relative="1" as="geometry">
            <mxPoint x="488.75" y="388" as="sourcePoint" />
            <mxPoint x="388.75" y="388" as="targetPoint" />
          </mxGeometry>
        </mxCell>
        <mxCell id="dXU8rXVmxxqrfWCyh8ZT-53" value="return" style="text;html=1;align=center;verticalAlign=middle;whiteSpace=wrap;rounded=0;" vertex="1" parent="1">
          <mxGeometry x="390" y="365" width="80" height="30" as="geometry" />
        </mxCell>
        <mxCell id="dXU8rXVmxxqrfWCyh8ZT-55" value="" style="endArrow=classic;html=1;rounded=0;dashed=1;exitX=0;exitY=1;exitDx=0;exitDy=-5;exitPerimeter=0;" edge="1" parent="1" source="dXU8rXVmxxqrfWCyh8ZT-37">
          <mxGeometry width="50" height="50" relative="1" as="geometry">
            <mxPoint x="354.88" y="405" as="sourcePoint" />
            <mxPoint x="235.13" y="405" as="targetPoint" />
          </mxGeometry>
        </mxCell>
        <mxCell id="dXU8rXVmxxqrfWCyh8ZT-56" value="return" style="text;html=1;align=center;verticalAlign=middle;whiteSpace=wrap;rounded=0;" vertex="1" parent="1">
          <mxGeometry x="256.13" y="382" width="80" height="30" as="geometry" />
        </mxCell>
        <mxCell id="dXU8rXVmxxqrfWCyh8ZT-57" style="edgeStyle=orthogonalEdgeStyle;rounded=0;orthogonalLoop=1;jettySize=auto;html=1;curved=0;exitX=0;exitY=1;exitDx=0;exitDy=-5;exitPerimeter=0;entryX=1;entryY=1;entryDx=0;entryDy=-5;entryPerimeter=0;dashed=1;" edge="1" parent="1" source="dXU8rXVmxxqrfWCyh8ZT-54" target="dXU8rXVmxxqrfWCyh8ZT-33">
          <mxGeometry relative="1" as="geometry" />
        </mxCell>
        <mxCell id="dXU8rXVmxxqrfWCyh8ZT-58" value="5. 成功添加APK到训练集中" style="text;html=1;align=center;verticalAlign=middle;whiteSpace=wrap;rounded=0;" vertex="1" parent="1">
          <mxGeometry x="110" y="400" width="100" height="30" as="geometry" />
        </mxCell>
      </root>
    </mxGraphModel>
  </diagram>
</mxfile>
